<?xml version="1.0" encoding="UTF-8" standalone="no"?><!-- Generator: Gravit.io --><svg xmlns="http://www.w3.org/2000/svg" xmlns:xlink="http://www.w3.org/1999/xlink" style="isolation:isolate" viewBox="-4428.125 -2516.775 6900 1848.926" width="6900pt" height="1848.926pt"><defs><clipPath id="_clipPath_j2IPPY4vLgCw0QCnYqr8jeLxXe9app4h"><rect x="-4428.125" y="-2516.775" width="6900" height="1848.926"/></clipPath></defs><g clip-path="url(#_clipPath_j2IPPY4vLgCw0QCnYqr8jeLxXe9app4h)"><rect x="-4428.125" y="-2516.775" width="6900" height="1687.5" transform="matrix(1,0,0,1,0,0)" fill="rgb(63,61,86)"/><circle vector-effect="non-scaling-stroke" cx="-1341.060606060606" cy="-2240.242424242424" r="14.72764779082604" fill="rgb(108,99,255)"/><path d=" M 373.231 -1147.914 L 363.114 -1150.133 L 365.329 -1160.255 L 358.584 -1161.734 L 356.364 -1151.612 L 346.247 -1153.827 L 344.769 -1147.082 L 354.886 -1144.863 L 352.671 -1134.745 L 359.416 -1133.266 L 361.636 -1143.388 L 371.753 -1141.169 L 373.231 -1147.914 L 373.231 -1147.914 Z " fill="rgb(230,230,230)"/><g><circle vector-effect="non-scaling-stroke" cx="-3929.9296333333346" cy="-1989.2786999999996" r="301.42963333333364" fill="rgb(230,230,230)"/><circle vector-effect="non-scaling-stroke" cx="-3959.5784609247103" cy="-2196.820402063105" r="34.59027608747283" fill="rgb(203,203,203)"/><circle vector-effect="non-scaling-stroke" cx="-3900.2808057419566" cy="-1850.9175501118384" r="34.59027608747283" fill="rgb(203,203,203)"/><circle vector-effect="non-scaling-stroke" cx="-3766.861149888162" cy="-2043.6348611483927" r="24.707333557013953" fill="rgb(203,203,203)"/><circle vector-effect="non-scaling-stroke" cx="-4048.5248981605755" cy="-1964.5713209047178" r="79.06349470540522" fill="rgb(203,203,203)"/></g><g><g><g opacity="0.8"><linearGradient id="_lgradient_0" x1="5.038734265383482e-7" y1="0.4999999935676427" x2="1.0000004176797352" y2="0.4999999935676427" gradientTransform="matrix(357.475,0,0,418.557,1644.44,-1476.518)" gradientUnits="userSpaceOnUse"><stop offset="0%" stop-opacity="1" style="stop-color:rgb(255,255,255)"/><stop offset="100%" stop-opacity="0.3" style="stop-color:rgb(255,255,255)"/></linearGradient><path d=" M 1652.357 -1059.559 L 1788.127 -1218.504 L 1923.897 -1377.449 L 2000.541 -1467.176 C 2004.782 -1472.141 1998.237 -1479.886 1993.997 -1474.921 L 1858.227 -1315.976 L 1722.458 -1157.031 L 1645.813 -1067.304 C 1641.573 -1062.339 1648.117 -1054.594 1652.357 -1059.559 L 1652.357 -1059.559 Z " fill="url(#_lgradient_0)"/></g><circle vector-effect="non-scaling-stroke" cx="994.1573233083836" cy="-1403.005923378837" r="14.727647790826154" fill="rgb(108,99,255)"/><path d=" M 1121.8 -1189.368 L 1114.45 -1182.067 L 1107.149 -1189.417 L 1102.249 -1184.55 L 1109.55 -1177.2 L 1102.199 -1169.898 L 1107.067 -1164.998 L 1114.417 -1172.299 L 1121.718 -1164.949 L 1126.618 -1169.816 L 1119.317 -1177.167 L 1126.668 -1184.468 L 1121.8 -1189.368 L 1121.8 -1189.368 Z " fill="rgb(230,230,230)"/><path d=" M 1180.711 -1616.469 L 1173.361 -1609.168 L 1166.06 -1616.518 L 1161.159 -1611.651 L 1168.46 -1604.301 L 1161.11 -1596.999 L 1165.977 -1592.099 L 1173.328 -1599.4 L 1180.629 -1592.05 L 1185.529 -1596.917 L 1178.228 -1604.268 L 1185.579 -1611.569 L 1180.711 -1616.469 L 1180.711 -1616.469 Z " fill="rgb(230,230,230)"/><path d=" M 1365.856 -2426.952 C 1349.953 -2416.355 1333.676 -2441.575 1349.885 -2451.701 C 1365.788 -2462.297 1382.065 -2437.077 1365.856 -2426.952 Z " fill="rgb(230,230,230)"/><path d=" M 1516.894 -1525.763 L 1506.776 -1527.983 L 1508.992 -1538.105 L 1502.247 -1539.583 L 1500.027 -1529.461 L 1489.909 -1531.677 L 1488.431 -1524.932 L 1498.549 -1522.712 L 1496.333 -1512.594 L 1503.078 -1511.116 L 1505.298 -1521.238 L 1515.416 -1519.018 L 1516.894 -1525.763 L 1516.894 -1525.763 Z " fill="rgb(230,230,230)"/><path d=" M 872.453 -2385.978 L 862.335 -2388.197 L 864.551 -2398.315 L 857.806 -2399.793 L 855.586 -2389.676 L 845.464 -2391.891 L 843.986 -2385.146 L 854.108 -2382.926 L 851.892 -2372.805 L 858.637 -2371.33 L 860.857 -2381.448 L 870.975 -2379.233 L 872.453 -2385.978 L 872.453 -2385.978 Z " fill="rgb(230,230,230)"/><circle vector-effect="non-scaling-stroke" cx="1831.42946790665" cy="-2064.596607460392" r="14.72764779082604" fill="rgb(108,99,255)"/><path d=" M 2398.414 -1111.955 L 2388.296 -1114.174 L 2390.511 -1124.296 L 2383.766 -1125.774 L 2381.547 -1115.653 L 2371.429 -1117.868 L 2369.951 -1111.123 L 2380.068 -1108.903 L 2377.853 -1098.786 L 2384.598 -1097.307 L 2386.818 -1107.429 L 2396.935 -1105.21 L 2398.414 -1111.955 L 2398.414 -1111.955 Z " fill="rgb(230,230,230)"/><path d=" M 2111.943 -2023.602 L 2101.825 -2025.822 L 2104.04 -2035.939 L 2097.295 -2037.418 L 2095.076 -2027.3 L 2084.954 -2029.515 L 2083.475 -2022.77 L 2093.597 -2020.551 L 2091.382 -2010.429 L 2098.127 -2008.955 L 2100.346 -2019.072 L 2110.464 -2016.857 L 2111.943 -2023.602 L 2111.943 -2023.602 Z " fill="rgb(230,230,230)"/><g opacity="0.8"><linearGradient id="_lgradient_1" x1="0" y1="0.5" x2="1" y2="0.5" gradientTransform="matrix(357.475,0,0,418.557,1422.073,-2357.75)" gradientUnits="userSpaceOnUse"><stop offset="100%" stop-opacity="1" style="stop-color:rgb(255,255,255)"/><stop offset="100%" stop-opacity="0.9919364091401494" style="stop-color:rgb(255,255,255)"/></linearGradient><path d=" M 1429.99 -1940.79 L 1565.76 -2099.735 L 1701.53 -2258.681 L 1778.174 -2348.408 C 1782.415 -2353.372 1775.87 -2361.117 1771.63 -2356.153 L 1635.86 -2197.208 L 1500.091 -2038.263 L 1423.446 -1948.536 C 1419.206 -1943.571 1425.75 -1935.826 1429.99 -1940.79 L 1429.99 -1940.79 Z " fill="url(#_lgradient_1)"/></g></g><g><circle vector-effect="non-scaling-stroke" cx="-640.7283319012959" cy="-1330.6815243764472" r="14.727647790826154" fill="rgb(108,99,255)"/><path d=" M -513.085 -1117.044 L -520.436 -1109.743 L -527.737 -1117.093 L -532.637 -1112.226 L -525.336 -1104.875 L -532.686 -1097.574 L -527.819 -1092.674 L -520.469 -1099.975 L -513.168 -1092.624 L -508.267 -1097.492 L -515.568 -1104.842 L -508.218 -1112.143 L -513.085 -1117.044 L -513.085 -1117.044 Z " fill="rgb(230,230,230)"/><path d=" M -269.029 -2354.627 C -284.933 -2344.031 -301.21 -2369.251 -285.001 -2379.377 C -269.098 -2389.972 -252.821 -2364.752 -269.029 -2354.627 Z " fill="rgb(230,230,230)"/><path d=" M -1190.295 -1258.555 L -1200.413 -1260.775 L -1198.198 -1270.897 L -1204.943 -1272.375 L -1207.162 -1262.253 L -1217.28 -1264.469 L -1218.758 -1257.724 L -1208.641 -1255.504 L -1210.856 -1245.386 L -1204.111 -1243.908 L -1201.891 -1254.03 L -1191.774 -1251.81 L -1190.295 -1258.555 L -1190.295 -1258.555 Z " fill="rgb(230,230,230)"/><path d=" M -965.143 -909.803 L -975.261 -912.022 L -973.045 -922.144 L -979.791 -923.622 L -982.01 -913.501 L -992.128 -915.716 L -993.606 -908.971 L -983.489 -906.751 L -985.704 -896.634 L -978.959 -895.155 L -976.739 -905.277 L -966.622 -903.058 L -965.143 -909.803 L -965.143 -909.803 Z " fill="rgb(230,230,230)"/><path d=" M -762.433 -2313.653 L -772.55 -2315.873 L -770.335 -2325.991 L -777.08 -2327.469 L -779.3 -2317.351 L -789.421 -2319.567 L -790.9 -2312.822 L -780.778 -2310.602 L -782.993 -2300.48 L -776.248 -2299.006 L -774.029 -2309.124 L -763.911 -2306.908 L -762.433 -2313.653 L -762.433 -2313.653 Z " fill="rgb(230,230,230)"/></g><g><circle vector-effect="non-scaling-stroke" cx="-2321.853331901296" cy="-1279.4065350167652" r="14.727647790826268" fill="rgb(108,99,255)"/><path d=" M -2194.21 -1065.769 L -2201.561 -1058.468 L -2208.862 -1065.818 L -2213.762 -1060.951 L -2206.461 -1053.6 L -2213.811 -1046.299 L -2208.944 -1041.399 L -2201.594 -1048.7 L -2194.293 -1041.349 L -2189.392 -1046.217 L -2196.693 -1053.567 L -2189.343 -1060.868 L -2194.21 -1065.769 L -2194.21 -1065.769 Z " fill="rgb(230,230,230)"/><path d=" M -2335.299 -1929.233 L -2342.65 -1921.932 L -2349.951 -1929.283 L -2354.851 -1924.415 L -2347.55 -1917.065 L -2354.901 -1909.764 L -2350.033 -1904.863 L -2342.683 -1912.164 L -2335.382 -1904.814 L -2330.481 -1909.681 L -2337.783 -1917.032 L -2330.432 -1924.333 L -2335.299 -1929.233 L -2335.299 -1929.233 Z " fill="rgb(230,230,230)"/><path d=" M -1950.154 -2303.352 C -1966.058 -2292.756 -1982.335 -2317.976 -1966.126 -2328.102 C -1950.223 -2338.697 -1933.946 -2313.477 -1950.154 -2303.352 Z " fill="rgb(230,230,230)"/><path d=" M -3185.057 -1359.553 L -3195.174 -1361.773 L -3192.959 -1371.895 L -3199.704 -1373.373 L -3201.924 -1363.251 L -3212.041 -1365.467 L -3213.52 -1358.721 L -3203.402 -1356.502 L -3205.617 -1346.384 L -3198.872 -1344.906 L -3196.653 -1355.028 L -3186.535 -1352.808 L -3185.057 -1359.553 L -3185.057 -1359.553 Z " fill="rgb(230,230,230)"/><path d=" M -2443.558 -2262.378 L -2453.675 -2264.598 L -2451.46 -2274.716 L -2458.205 -2276.194 L -2460.425 -2266.076 L -2470.546 -2268.292 L -2472.025 -2261.547 L -2461.903 -2259.327 L -2464.118 -2249.205 L -2457.373 -2247.731 L -2455.154 -2257.849 L -2445.036 -2255.633 L -2443.558 -2262.378 L -2443.558 -2262.378 Z " fill="rgb(230,230,230)"/><path d=" M 108.486 -2061.401 L 98.369 -2063.62 L 100.584 -2073.742 L 93.839 -2075.22 L 91.619 -2065.099 L 81.502 -2067.314 L 80.023 -2060.569 L 90.141 -2058.349 L 87.926 -2048.232 L 94.671 -2046.753 L 96.89 -2056.875 L 107.008 -2054.656 L 108.486 -2061.401 L 108.486 -2061.401 Z " fill="rgb(230,230,230)"/><g opacity="0.8"><linearGradient id="_lgradient_2" x1="5.038734265383482e-7" y1="0.4999999935676427" x2="1.0000004176797352" y2="0.4999999935676427" gradientTransform="matrix(357.475,0,0,418.557,160.033,-1993.091)" gradientUnits="userSpaceOnUse"><stop offset="0%" stop-opacity="1" style="stop-color:rgb(255,255,255)"/><stop offset="100%" stop-opacity="0.3" style="stop-color:rgb(255,255,255)"/></linearGradient><path d=" M 167.951 -1576.131 L 303.721 -1735.076 L 439.49 -1894.021 L 516.135 -1983.749 C 520.375 -1988.713 513.831 -1996.458 509.591 -1991.494 L 373.821 -1832.549 L 238.051 -1673.604 L 161.407 -1583.876 C 157.166 -1578.912 163.711 -1571.167 167.951 -1576.131 L 167.951 -1576.131 Z " fill="url(#_lgradient_2)"/></g></g><g><circle vector-effect="non-scaling-stroke" cx="-3685.4783319012963" cy="-1444.431524376447" r="14.727647790826268" fill="rgb(108,99,255)"/><path d=" M -3557.835 -1230.794 L -3565.186 -1223.493 L -3572.487 -1230.843 L -3577.387 -1225.976 L -3570.086 -1218.625 L -3577.436 -1211.324 L -3572.569 -1206.424 L -3565.219 -1213.725 L -3557.918 -1206.374 L -3553.017 -1211.242 L -3560.318 -1218.592 L -3552.968 -1225.893 L -3557.835 -1230.794 L -3557.835 -1230.794 Z " fill="rgb(230,230,230)"/><path d=" M -3498.924 -1657.895 L -3506.275 -1650.593 L -3513.576 -1657.944 L -3518.476 -1653.077 L -3511.175 -1645.726 L -3518.526 -1638.425 L -3513.658 -1633.525 L -3506.308 -1640.826 L -3499.007 -1633.475 L -3494.106 -1638.343 L -3501.408 -1645.693 L -3494.057 -1652.994 L -3498.924 -1657.895 L -3498.924 -1657.895 Z " fill="rgb(230,230,230)"/><path d=" M -3313.779 -2468.377 C -3329.683 -2457.781 -3345.96 -2483.001 -3329.751 -2493.127 C -3313.848 -2503.722 -3297.571 -2478.502 -3313.779 -2468.377 Z " fill="rgb(230,230,230)"/><path d=" M -4235.045 -1372.305 L -4245.163 -1374.525 L -4242.948 -1384.647 L -4249.693 -1386.125 L -4251.912 -1376.003 L -4262.03 -1378.219 L -4263.508 -1371.474 L -4253.391 -1369.254 L -4255.606 -1359.136 L -4248.861 -1357.658 L -4246.641 -1367.78 L -4236.524 -1365.56 L -4235.045 -1372.305 L -4235.045 -1372.305 Z " fill="rgb(230,230,230)"/><path d=" M -1773.348 -1407.341 L -1783.466 -1409.56 L -1781.25 -1419.682 L -1787.995 -1421.16 L -1790.215 -1411.038 L -1800.332 -1413.254 L -1801.811 -1406.509 L -1791.693 -1404.289 L -1793.908 -1394.172 L -1787.163 -1392.693 L -1784.944 -1402.815 L -1774.826 -1400.595 L -1773.348 -1407.341 L -1773.348 -1407.341 Z " fill="rgb(230,230,230)"/><path d=" M -3807.183 -2427.403 L -3817.3 -2429.623 L -3815.085 -2439.741 L -3821.83 -2441.219 L -3824.05 -2431.101 L -3834.171 -2433.317 L -3835.65 -2426.572 L -3825.528 -2424.352 L -3827.743 -2414.23 L -3820.998 -2412.756 L -3818.779 -2422.874 L -3808.661 -2420.658 L -3807.183 -2427.403 L -3807.183 -2427.403 Z " fill="rgb(230,230,230)"/><circle vector-effect="non-scaling-stroke" cx="-2848.2061873030298" cy="-2106.022208458002" r="14.727647790826268" fill="rgb(108,99,255)"/><path d=" M -2958.495 -1882.926 L -2968.612 -1885.145 L -2966.397 -1895.267 L -2973.142 -1896.745 L -2975.362 -1886.624 L -2985.479 -1888.839 L -2986.958 -1882.094 L -2976.84 -1879.874 L -2979.055 -1869.757 L -2972.31 -1868.278 L -2970.091 -1878.4 L -2959.973 -1876.181 L -2958.495 -1882.926 L -2958.495 -1882.926 Z " fill="rgb(230,230,230)"/><path d=" M -2567.693 -2065.028 L -2577.811 -2067.247 L -2575.595 -2077.365 L -2582.34 -2078.843 L -2584.56 -2068.726 L -2594.682 -2070.941 L -2596.16 -2064.196 L -2586.038 -2061.976 L -2588.254 -2051.855 L -2581.509 -2050.38 L -2579.289 -2060.498 L -2569.171 -2058.283 L -2567.693 -2065.028 L -2567.693 -2065.028 Z " fill="rgb(230,230,230)"/></g></g><path d=" M -2609 -1222 Q -2504.471 -1082.071 -2609 -1007 C -2719 -928 -3043.333 -950.667 -3119 -950 Q -3333.506 -948.11 -3464 -829" fill="none" vector-effect="non-scaling-stroke" stroke-width="3" stroke="rgb(130,115,232)" stroke-linejoin="miter" stroke-linecap="square" stroke-miterlimit="3"/><clipPath id="_clipPath_GAUiLa7TP04tekinwC6K2AE3DHf4hS6N"><rect x="-3097.429" y="-1756.461" width="600.261" height="1006.62" transform="matrix(0.883,0.47,-0.47,0.883,-915.971,1166.74)" fill="rgb(255,255,255)"/></clipPath><g clip-path="url(#_clipPath_GAUiLa7TP04tekinwC6K2AE3DHf4hS6N)"><g><g><path d=" M -2713.386 -1506.62 L -2536.296 -1412.438 C -2520.005 -1403.775 -2513.814 -1383.515 -2522.477 -1367.224 L -2631.586 -1162.067 C -2640.25 -1145.776 -2660.507 -1139.587 -2676.798 -1148.251 L -2853.888 -1242.432 C -2870.179 -1251.096 -2876.372 -1271.353 -2867.709 -1287.643 L -2758.6 -1492.801 C -2749.936 -1509.092 -2729.677 -1515.284 -2713.386 -1506.62 Z " fill="rgb(195,194,194)"/><g><path d=" M -2888.834 -1189.359 L -2885.723 -1194.289 C -2884.034 -1196.97 -2880.484 -1197.772 -2877.803 -1196.079 L -2824.771 -1162.611 C -2822.091 -1160.922 -2821.289 -1157.372 -2822.979 -1154.689 L -2826.091 -1149.763 C -2827.782 -1147.08 -2831.332 -1146.278 -2834.013 -1147.971 L -2887.045 -1181.439 C -2889.724 -1183.131 -2890.526 -1186.68 -2888.834 -1189.359 Z " fill="rgb(219,213,255)"/><g><path d=" M -2894.147 -1188.73 C -2870.95 -1177.91 -2846.704 -1161.855 -2825.58 -1145.277 L -2891.829 -1051.104 C -2932.393 -1081.603 -2946.062 -1091.913 -2975.213 -1115.148 C -2973.462 -1122.536 -2968.373 -1127.845 -2966.544 -1130.202 C -2957.808 -1141.457 -2942.745 -1139.76 -2933.754 -1135.807 Q -2930.738 -1134.481 -2894.147 -1188.73 Z " fill="rgb(255,255,255)"/><path d=" M -2878.513 -1069.477 L -2891.552 -1050.945 C -2896.466 -1054.639 -2900.985 -1058.035 -2904.663 -1060.805 C -2896.733 -1071.344 -2888.004 -1074.187 -2878.513 -1069.477 Z " fill="rgb(160,194,226)"/><path d=" M -2915.244 -1068.595 C -2939.378 -1086.807 -2953.295 -1097.445 -2976.275 -1115.762 C -2974.528 -1123.149 -2970.293 -1127.568 -2967.42 -1131.138 C -2957.865 -1141.646 -2951.018 -1143.242 -2933.754 -1135.807 C -2919.753 -1117.08 -2913.567 -1094.63 -2915.244 -1068.595 Z " fill="rgb(162,193,228)"/><path d=" M -2976.275 -1115.762 C -2976.58 -1114.438 -2978.749 -1110.606 -2978.838 -1109.667 L -2894.992 -1045.156 L -2891.552 -1050.945 L -2976.275 -1115.762 Z " fill="rgb(0,0,0)"/><path d=" M -2890.936 -1190.635 L -2827.103 -1149.624 C -2824.847 -1148.176 -2824.193 -1145.168 -2825.641 -1142.913 L -2825.641 -1142.913 C -2827.09 -1140.654 -2830.098 -1140 -2832.355 -1141.453 L -2896.186 -1182.462 C -2898.441 -1183.91 -2899.095 -1186.918 -2897.648 -1189.173 L -2897.648 -1189.173 C -2896.198 -1191.432 -2893.19 -1192.086 -2890.936 -1190.635 Z " fill="rgb(0,0,0)"/></g><path d=" M -2880.968 -1206.266 L -2829.308 -1281.787 C -2824.575 -1288.707 -2815.117 -1290.48 -2808.196 -1285.749 L -2768.979 -1258.921 C -2762.06 -1254.187 -2760.286 -1244.729 -2765.02 -1237.81 L -2816.675 -1162.29 C -2821.409 -1155.37 -2830.871 -1153.596 -2837.788 -1158.328 L -2877.006 -1185.153 C -2883.925 -1189.887 -2885.7 -1199.349 -2880.968 -1206.266 Z " fill="rgb(255,255,255)"/></g><g><path d=" M -2789.209 -1128.869 L -2786.489 -1134.048 C -2785.018 -1136.849 -2781.548 -1137.926 -2778.747 -1136.456 L -2723.506 -1107.42 C -2720.706 -1105.949 -2719.626 -1102.482 -2721.097 -1099.681 L -2723.822 -1094.501 C -2725.292 -1091.701 -2728.76 -1090.621 -2731.559 -1092.094 L -2786.805 -1121.129 C -2789.603 -1122.603 -2790.683 -1126.07 -2789.209 -1128.869 Z " fill="rgb(219,213,255)"/><g><path d=" M -2723.19 -1089.604 C -2743.173 -1104.506 -2768.127 -1117.894 -2792.087 -1128.368 L -2842.294 -1028.105 C -2797.427 -1007.382 -2782.279 -1000.417 -2748.906 -986.134 C -2743.376 -991.042 -2741.17 -997.857 -2739.992 -1000.512 C -2734.367 -1013.196 -2742.771 -1025.334 -2750.311 -1031.222 Q -2752.84 -1033.195 -2723.19 -1089.604 Z " fill="rgb(255,255,255)"/><path d=" M -2832.681 -1048 L -2842.56 -1028.269 C -2837.126 -1025.759 -2832.127 -1023.451 -2828.057 -1021.572 C -2822.675 -1033.234 -2824.261 -1042.032 -2832.681 -1048 Z " fill="rgb(160,194,226)"/><path d=" M -2816.493 -1016.092 C -2789.74 -1003.794 -2774.198 -996.763 -2747.886 -985.505 C -2742.358 -990.41 -2740.522 -996.083 -2738.784 -1000.193 C -2734.182 -1013.233 -2735.969 -1019.842 -2750.311 -1031.222 C -2772.83 -1034.592 -2794.938 -1029.538 -2816.493 -1016.092 Z " fill="rgb(162,193,228)"/><path d=" M -2747.886 -985.505 C -2748.882 -984.631 -2751.324 -980.662 -2752.087 -980.153 L -2845.192 -1022.655 L -2842.56 -1028.269 L -2747.886 -985.505 Z " fill="rgb(0,0,0)"/><path d=" M -2723.038 -1093.237 L -2787.657 -1129.063 C -2789.941 -1130.331 -2792.823 -1129.504 -2794.09 -1127.22 L -2794.09 -1127.22 C -2795.352 -1124.938 -2794.529 -1122.058 -2792.245 -1120.791 L -2727.626 -1084.964 C -2725.342 -1083.697 -2722.46 -1084.524 -2721.195 -1086.804 L -2721.195 -1086.804 C -2719.927 -1089.088 -2720.754 -1091.97 -2723.038 -1093.237 Z " fill="rgb(0,0,0)"/></g><path d=" M -2782.446 -1146.453 L -2740.196 -1226.654 C -2736.179 -1234.279 -2726.727 -1237.207 -2719.106 -1233.191 L -2677.815 -1211.438 C -2670.194 -1207.423 -2667.266 -1197.971 -2671.281 -1190.35 L -2713.536 -1110.147 C -2717.549 -1102.524 -2727.001 -1099.597 -2734.625 -1103.614 L -2775.913 -1125.365 C -2783.534 -1129.38 -2786.464 -1138.829 -2782.446 -1146.453 Z " fill="rgb(255,255,255)"/></g><g><path d=" M -2787.155 -1562.367 L -2771.407 -1539.742 C -2768.485 -1535.543 -2769.519 -1529.764 -2773.718 -1526.842 L -2818.05 -1495.982 C -2822.247 -1493.063 -2828.026 -1494.098 -2830.948 -1498.297 L -2846.698 -1520.919 C -2849.62 -1525.118 -2848.581 -1530.898 -2844.387 -1533.819 L -2800.052 -1564.676 C -2795.856 -1567.6 -2790.075 -1566.561 -2787.155 -1562.367 Z " fill="rgb(219,213,255)"/><path d=" M -2817.677 -1642.439 L -2812.929 -1628.407 C -2811.686 -1624.732 -2813.66 -1620.736 -2817.336 -1619.492 L -2867.194 -1602.623 C -2870.869 -1601.379 -2874.865 -1603.354 -2876.107 -1607.032 L -2880.855 -1621.064 C -2882.101 -1624.741 -2880.124 -1628.735 -2876.449 -1629.979 L -2826.591 -1646.848 C -2822.915 -1648.092 -2818.921 -1646.114 -2817.677 -1642.439 Z " fill="rgb(219,213,255)"/><path d=" M -2767.641 -1537.201 L -2707.816 -1471.26 C -2703.082 -1466.04 -2703.475 -1457.956 -2708.695 -1453.222 L -2747.096 -1418.38 C -2752.315 -1413.646 -2760.399 -1414.039 -2765.134 -1419.259 L -2824.961 -1485.201 C -2829.696 -1490.421 -2829.302 -1498.505 -2824.083 -1503.24 L -2785.679 -1538.079 C -2780.459 -1542.814 -2772.378 -1542.422 -2767.641 -1537.201 Z " fill="rgb(255,255,255)"/><path d=" M -2806.135 -1620.538 L -2781.739 -1558.132 C -2778.861 -1550.772 -2782.498 -1542.461 -2789.86 -1539.584 L -2835.267 -1521.831 C -2842.627 -1518.957 -2850.939 -1522.595 -2853.814 -1529.952 L -2878.213 -1592.36 C -2881.091 -1599.719 -2877.451 -1608.029 -2870.092 -1610.907 L -2824.682 -1628.66 C -2817.323 -1631.538 -2809.011 -1627.9 -2806.135 -1620.538 Z " fill="rgb(255,255,255)"/><g><path d=" M -2819.535 -1644.966 Q -2825.295 -1664.213 -2835.099 -1696.097 C -2838.531 -1707.367 -2846.958 -1714.799 -2853.909 -1712.682 L -2896.788 -1699.631 C -2903.739 -1697.514 -2906.594 -1686.649 -2903.163 -1675.376 Q -2897.527 -1639.609 -2887.598 -1624.248 Q -2877.671 -1608.888 -2819.535 -1644.966 Q -2813.776 -1625.719 -2819.535 -1644.966 Z " fill="rgb(255,255,255)"/><path d=" M -2864.021 -1627.621 C -2856.207 -1620.012 -2831.267 -1632.685 -2819.535 -1644.966 C -2807.804 -1657.247 -2805.027 -1663.254 -2800.148 -1669.958 C -2795.193 -1676.65 -2802.66 -1692.561 -2814.807 -1685.144 Q -2823.89 -1675.16 -2827.274 -1670.687 Q -2828.934 -1671.457 -2842.541 -1674.491 C -2848.266 -1675.767 -2864.863 -1671.368 -2870.047 -1656.259 C -2875.497 -1640.378 -2871.836 -1635.228 -2864.021 -1627.621 Z " fill="rgb(178,167,240)"/></g></g><g><path d=" M -2588.716 -1252.539 L -2593.286 -1278.02 C -2594.153 -1282.876 -2590.921 -1287.524 -2586.064 -1288.395 L -2533.69 -1297.781 C -2528.835 -1298.654 -2524.186 -1295.417 -2523.317 -1290.564 L -2518.749 -1265.08 C -2517.879 -1260.226 -2521.116 -1255.577 -2525.969 -1254.708 L -2578.344 -1245.318 C -2583.197 -1244.449 -2587.846 -1247.685 -2588.716 -1252.539 Z " fill="rgb(219,213,255)"/><path d=" M -2597.355 -1166.1 L -2590.992 -1191.219 C -2589.837 -1195.775 -2585.2 -1198.536 -2580.644 -1197.381 L -2533.418 -1185.415 C -2528.862 -1184.261 -2526.1 -1179.627 -2527.255 -1175.071 L -2533.62 -1149.95 C -2534.774 -1145.397 -2539.41 -1142.636 -2543.963 -1143.789 L -2591.192 -1155.756 C -2595.748 -1156.911 -2598.51 -1161.544 -2597.355 -1166.1 Z " fill="rgb(219,213,255)"/><path d=" M -2597.027 -1281.315 L -2623.857 -1366.215 C -2625.979 -1372.936 -2622.247 -1380.117 -2615.527 -1382.24 L -2566.086 -1397.863 C -2559.366 -1399.986 -2552.188 -1396.255 -2550.062 -1389.533 L -2523.234 -1304.637 C -2521.111 -1297.917 -2524.843 -1290.736 -2531.564 -1288.613 L -2581.004 -1272.989 C -2587.724 -1270.867 -2594.903 -1274.598 -2597.027 -1281.315 Z " fill="rgb(255,255,255)"/><path d=" M -2595.241 -1190.969 L -2589.266 -1257.708 C -2588.562 -1265.578 -2581.6 -1271.395 -2573.73 -1270.69 L -2525.168 -1266.345 C -2517.299 -1265.641 -2511.481 -1258.679 -2512.186 -1250.809 L -2518.162 -1184.067 C -2518.864 -1176.196 -2525.826 -1170.379 -2533.698 -1171.085 L -2582.259 -1175.433 C -2590.128 -1176.138 -2595.947 -1183.097 -2595.241 -1190.969 Z " fill="rgb(255,255,255)"/><g><path d=" M -2596.711 -1168.388 Q -2601.545 -1148.89 -2609.33 -1116.452 C -2612.114 -1105.004 -2608.639 -1094.317 -2601.581 -1092.603 L -2558.027 -1082.019 C -2550.966 -1080.303 -2542.978 -1088.205 -2540.195 -1099.65 Q -2526.845 -1133.312 -2527.577 -1151.586 Q -2528.303 -1169.86 -2596.711 -1168.388 Q -2591.874 -1187.884 -2596.711 -1168.388 Z " fill="rgb(255,255,255)"/><path d=" M -2549.587 -1160.68 C -2552.444 -1171.207 -2579.862 -1171.167 -2596.708 -1168.386 C -2613.557 -1165.607 -2617.01 -1162.27 -2626.624 -1157.423 C -2633.066 -1153.504 -2635.094 -1137.401 -2621.226 -1136.208 Q -2607.777 -1139.245 -2603.136 -1142.305 Q -2602.099 -1140.801 -2591.931 -1131.266 C -2587.652 -1127.255 -2571.126 -1122.594 -2558.974 -1132.962 C -2546.203 -1143.859 -2546.734 -1150.154 -2549.587 -1160.68 Z " fill="rgb(255,255,255)"/></g></g><g><path d=" M -2706.568 -1482.825 L -2566.12 -1408.131 C -2558.408 -1404.03 -2555.473 -1394.435 -2559.576 -1386.721 L -2627.299 -1259.381 C -2631.4 -1251.669 -2640.998 -1248.736 -2648.709 -1252.837 L -2789.158 -1327.532 C -2796.872 -1331.634 -2799.802 -1341.23 -2795.701 -1348.941 L -2727.978 -1476.282 C -2723.875 -1483.996 -2714.283 -1486.928 -2706.568 -1482.825 Z " fill="rgb(255,254,254)"/><path d=" M -2780.739 -1346.963 L -2636.864 -1270.446 C -2626.105 -1264.725 -2623.667 -1252.448 -2631.424 -1243.05 C -2635.796 -1237.752 -2649.944 -1210.666 -2653.258 -1200.162 C -2656.928 -1188.542 -2668.641 -1183.753 -2679.4 -1189.475 L -2823.685 -1266.21 C -2834.444 -1271.932 -2837.381 -1284.594 -2830.241 -1294.467 C -2825.794 -1300.621 -2811.438 -1327.396 -2807.971 -1336.653 C -2803.701 -1348.063 -2791.498 -1352.685 -2780.739 -1346.963 Z " fill="rgb(255,255,255)"/><g><path d=" M -2745.826 -1432.215 L -2586.113 -1347.274 C -2583.047 -1345.644 -2581.63 -1342.309 -2582.95 -1339.828 L -2582.95 -1339.828 C -2584.27 -1337.346 -2587.829 -1336.654 -2590.894 -1338.284 L -2750.608 -1423.224 C -2753.673 -1424.855 -2755.088 -1428.192 -2753.769 -1430.674 L -2753.769 -1430.674 C -2752.449 -1433.155 -2748.892 -1433.845 -2745.826 -1432.215 Z " fill="rgb(219,213,255)"/><path d=" M -2763.995 -1398.052 L -2604.281 -1313.112 C -2601.216 -1311.482 -2599.8 -1308.144 -2601.12 -1305.662 L -2601.12 -1305.662 C -2602.44 -1303.181 -2605.997 -1302.492 -2609.062 -1304.122 L -2768.776 -1389.062 C -2771.841 -1390.692 -2773.259 -1394.027 -2771.939 -1396.508 L -2771.939 -1396.508 C -2770.619 -1398.99 -2767.06 -1399.682 -2763.995 -1398.052 Z " fill="rgb(219,213,255)"/><path d=" M -2712.077 -1426.393 L -2607.207 -1369.405 C -2605.437 -1368.445 -2604.783 -1366.231 -2605.743 -1364.461 L -2633.904 -1312.641 C -2634.864 -1310.871 -2637.078 -1310.216 -2638.847 -1311.179 L -2743.718 -1368.165 C -2745.483 -1369.126 -2746.138 -1371.341 -2745.18 -1373.107 L -2717.017 -1424.93 C -2716.058 -1426.697 -2713.844 -1427.352 -2712.077 -1426.393 Z " fill="rgb(130,115,232)"/><path d=" M -2712.083 -1423.036 L -2610.017 -1367.573 C -2608.858 -1366.945 -2608.428 -1365.49 -2609.059 -1364.332 L -2635.328 -1315.991 C -2635.956 -1314.831 -2637.412 -1314.401 -2638.57 -1315.032 L -2740.632 -1370.493 C -2741.795 -1371.123 -2742.222 -1372.577 -2741.594 -1373.736 L -2715.324 -1422.077 C -2714.696 -1423.237 -2713.241 -1423.667 -2712.083 -1423.036 Z " fill="rgb(235,235,235)"/><path d=" M -2715.874 -1404.543 C -2714.962 -1406.258 -2712.831 -1406.909 -2711.116 -1405.997 C -2709.402 -1405.086 -2708.751 -1402.954 -2709.662 -1401.24 C -2710.574 -1399.526 -2712.706 -1398.874 -2714.42 -1399.786 C -2716.134 -1400.697 -2716.786 -1402.829 -2715.874 -1404.543 Z " fill="rgb(219,26,26)"/><path d=" M -2721.655 -1393.673 C -2720.744 -1395.387 -2718.612 -1396.039 -2716.898 -1395.127 C -2715.183 -1394.215 -2714.532 -1392.084 -2715.444 -1390.369 C -2716.355 -1388.655 -2718.487 -1388.004 -2720.201 -1388.915 C -2721.915 -1389.827 -2722.567 -1391.959 -2721.655 -1393.673 Z " fill="rgb(177,219,26)"/><path d=" M -2727.436 -1382.803 C -2726.525 -1384.517 -2724.393 -1385.168 -2722.679 -1384.257 C -2720.965 -1383.345 -2720.313 -1381.213 -2721.225 -1379.499 C -2722.136 -1377.785 -2724.268 -1377.133 -2725.982 -1378.045 C -2727.696 -1378.957 -2728.348 -1381.088 -2727.436 -1382.803 Z " fill="rgb(26,219,103)"/><rect x="-2712.864" y="-1392.328" width="59.803" height="39.102" transform="matrix(0.883,0.47,-0.47,0.883,-958.754,1099.046)" fill="rgb(123,161,236)"/><path d=" M -2641.78 -1369.121 L -2618.951 -1356.98 C -2618.394 -1356.684 -2618.182 -1355.992 -2618.479 -1355.434 L -2619.056 -1354.349 C -2619.352 -1353.792 -2620.044 -1353.58 -2620.602 -1353.877 L -2643.43 -1366.018 C -2643.988 -1366.314 -2644.199 -1367.006 -2643.903 -1367.563 L -2643.326 -1368.649 C -2643.029 -1369.206 -2642.337 -1369.417 -2641.78 -1369.121 Z " fill="rgb(0,0,0)"/><path d=" M -2645.493 -1363.322 L -2622.667 -1351.182 C -2622.109 -1350.886 -2621.895 -1350.192 -2622.191 -1349.635 L -2622.769 -1348.55 C -2623.065 -1347.992 -2623.761 -1347.78 -2624.319 -1348.076 L -2647.145 -1360.215 C -2647.702 -1360.512 -2647.912 -1361.207 -2647.616 -1361.764 L -2647.038 -1362.849 C -2646.742 -1363.407 -2646.05 -1363.618 -2645.493 -1363.322 Z " fill="rgb(0,0,0)"/><path d=" M -2648.876 -1356.96 L -2626.05 -1344.82 C -2625.493 -1344.524 -2625.279 -1343.83 -2625.575 -1343.273 L -2626.154 -1342.185 C -2626.45 -1341.627 -2627.145 -1341.418 -2627.702 -1341.714 L -2650.528 -1353.853 C -2651.085 -1354.15 -2651.297 -1354.842 -2651.001 -1355.399 L -2650.422 -1356.487 C -2650.125 -1357.044 -2649.433 -1357.256 -2648.876 -1356.96 Z " fill="rgb(0,0,0)"/><path d=" M -2652.261 -1350.595 L -2629.435 -1338.455 C -2628.878 -1338.159 -2628.664 -1337.465 -2628.96 -1336.908 L -2629.537 -1335.823 C -2629.834 -1335.265 -2630.528 -1335.056 -2631.086 -1335.352 L -2653.912 -1347.491 C -2654.469 -1347.788 -2654.68 -1348.48 -2654.384 -1349.037 L -2653.807 -1350.122 C -2653.511 -1350.68 -2652.819 -1350.891 -2652.261 -1350.595 Z " fill="rgb(0,0,0)"/><path d=" M -2655.645 -1344.233 L -2632.819 -1332.093 C -2632.262 -1331.797 -2632.047 -1331.103 -2632.344 -1330.546 L -2632.922 -1329.458 C -2633.219 -1328.9 -2633.914 -1328.691 -2634.471 -1328.987 L -2657.297 -1341.126 C -2657.854 -1341.423 -2658.066 -1342.115 -2657.769 -1342.672 L -2657.19 -1343.76 C -2656.894 -1344.318 -2656.202 -1344.529 -2655.645 -1344.233 Z " fill="rgb(0,0,0)"/></g><path d=" M -2767.522 -1421.737 Q -2764.649 -1417.594 -2760.072 -1415.935 L -2719.194 -1483.862 Q -2756.439 -1442.11 -2767.522 -1421.737 Z " fill="rgb(219,213,255)"/><path d=" M -2559.395 -1400.878 Q -2556.443 -1400.501 -2550.626 -1391.12 Q -2550.185 -1389.749 -2604.338 -1303.092 L -2559.395 -1400.878 Z " fill="rgb(219,213,255)"/><path d=" M -2832.214 -1290.666 C -2834.721 -1286.836 -2835.292 -1283.031 -2833.062 -1276.427 L -2784.569 -1245.407 C -2812.721 -1270.278 -2816.165 -1278.71 -2832.214 -1290.666 Z " fill="rgb(162,193,228)"/><path d=" M -2656.833 -1193.412 C -2660.513 -1188.551 -2666.687 -1186.827 -2673.34 -1186.252 L -2710.028 -1205.764 L -2656.833 -1193.412 Z " fill="rgb(162,193,228)"/><path d=" M -2798.926 -1347.172 L -2782.393 -1331.903 L -2794.713 -1350.41 C -2795.901 -1349.153 -2797.275 -1347.976 -2798.926 -1347.172 Z " fill="rgb(189,188,188)"/><path d=" M -2626.44 -1260.918 C -2626.942 -1258.524 -2626.819 -1256.322 -2627.086 -1255.783 L -2642.63 -1257.574 L -2626.44 -1260.918 Z " fill="rgb(189,188,188)"/></g><g><g><path d=" M -2457.484 -1493.947 L -2436.85 -1481.57 C -2435.052 -1480.493 -2434.466 -1478.157 -2435.547 -1476.358 L -2463.883 -1429.112 C -2464.962 -1427.316 -2467.299 -1426.729 -2469.095 -1427.809 L -2489.73 -1440.183 C -2491.527 -1441.263 -2492.113 -1443.599 -2491.033 -1445.395 L -2462.696 -1492.644 C -2461.619 -1494.442 -2459.285 -1495.025 -2457.484 -1493.947 Z " fill="rgb(255,255,255)"/><path d=" M -2460.417 -1475.929 C -2458.917 -1478.424 -2455.675 -1479.236 -2453.178 -1477.739 C -2450.679 -1476.24 -2449.868 -1472.998 -2451.366 -1470.498 C -2452.863 -1468.002 -2456.108 -1467.192 -2458.605 -1468.689 C -2461.101 -1470.186 -2461.916 -1473.43 -2460.417 -1475.929 Z " fill="rgb(0,0,0)"/><path d=" M -2477.005 -1455.111 C -2474.506 -1459.272 -2469.101 -1460.627 -2464.938 -1458.131 C -2460.776 -1455.635 -2459.423 -1450.227 -2461.919 -1446.065 C -2464.414 -1441.902 -2469.822 -1440.549 -2473.985 -1443.045 C -2478.146 -1445.544 -2479.501 -1450.949 -2477.005 -1455.111 Z " fill="rgb(100,65,189)"/></g><g><path d=" M -2703.64 -1638.771 L -2682.19 -1625.906 C -2680.617 -1624.965 -2680.105 -1622.92 -2681.051 -1621.346 L -2709.875 -1573.284 C -2710.819 -1571.713 -2712.864 -1571.201 -2714.436 -1572.143 L -2735.886 -1585.01 C -2737.458 -1585.952 -2737.97 -1587.996 -2737.027 -1589.571 L -2708.202 -1637.63 C -2707.256 -1639.203 -2705.214 -1639.717 -2703.64 -1638.771 Z " fill="rgb(255,255,255)"/><path d=" M -2706.165 -1620.509 C -2704.665 -1623.004 -2701.423 -1623.816 -2698.927 -1622.319 C -2696.427 -1620.82 -2695.616 -1617.578 -2697.114 -1615.079 C -2698.611 -1612.582 -2701.857 -1611.772 -2704.353 -1613.269 C -2706.852 -1614.768 -2707.664 -1618.01 -2706.165 -1620.509 Z " fill="rgb(0,0,0)"/><path d=" M -2722.753 -1599.692 C -2720.254 -1603.853 -2714.849 -1605.207 -2710.686 -1602.711 C -2706.524 -1600.215 -2705.171 -1594.807 -2707.667 -1590.645 C -2710.163 -1586.482 -2715.571 -1585.129 -2719.732 -1587.628 C -2723.894 -1590.124 -2725.249 -1595.529 -2722.753 -1599.692 Z " fill="rgb(100,65,189)"/></g><path d=" M -2687.133 -1623.892 Q -2638.622 -1684.479 -2597.384 -1686.527 C -2554.572 -1688.654 -2522.598 -1680.578 -2494.714 -1661.117 C -2466.939 -1641.728 -2445.42 -1610.92 -2440.619 -1583.604 C -2435.23 -1552.976 -2438.673 -1525.078 -2451.943 -1499.865 C -2461.933 -1477.394 -2478.175 -1452.855 -2500.748 -1426.371 C -2513.368 -1409.994 -2516.714 -1395.94 -2558.862 -1400.982 C -2614.911 -1412.293 -2660.034 -1444.215 -2684.309 -1459.029 C -2705.098 -1473.336 -2718.88 -1482.487 -2724.782 -1512.68 C -2724.859 -1535.471 -2719.921 -1547.546 -2716.157 -1561.167 C -2708.889 -1585.218 -2700.077 -1606.514 -2687.133 -1623.892 Z " fill="rgb(255,255,255)"/><path d=" M -2498.672 -1663.112 C -2529.316 -1685.81 -2605.654 -1703.324 -2646.426 -1665.992 C -2677.01 -1640.796 -2707.012 -1606.409 -2721.812 -1550.697 C -2728.782 -1523.759 -2723.605 -1498.309 -2715.532 -1487.592 C -2713.258 -1526.035 -2697.844 -1572.048 -2634.792 -1631.915 C -2616.145 -1653.869 -2563.982 -1665.245 -2498.672 -1663.112 Z " fill="rgb(236,234,249)"/><path d=" M -2558.862 -1400.982 C -2620.909 -1423.682 -2696.053 -1466.818 -2716.983 -1492.349 C -2725.015 -1483.056 -2620.971 -1409.048 -2558.862 -1400.982 Z " fill="rgb(219,213,255)"/><path d=" M -2685.551 -1601.007 C -2659.054 -1650.829 -2589.57 -1665.765 -2530.481 -1634.34 C -2471.393 -1602.915 -2444.932 -1536.953 -2471.429 -1487.131 C -2497.926 -1437.309 -2567.41 -1422.373 -2626.499 -1453.798 C -2685.587 -1485.223 -2712.048 -1551.185 -2685.551 -1601.007 Z " fill="rgb(49,48,48)"/><path d=" M -2618.262 -1615.155 C -2583.971 -1612.793 -2539.28 -1636.793 -2531.969 -1635.024 C -2531.268 -1634.794 -2532.007 -1635.002 -2531.99 -1635.035 C -2531.945 -1635.12 -2534.05 -1636.164 -2538.261 -1638.178 C -2567.078 -1653.402 -2636.995 -1667.452 -2679.17 -1611.251 C -2708.247 -1568.463 -2697.284 -1520.659 -2664.512 -1483.242 Q -2682.688 -1542.713 -2679.448 -1560.041 C -2676.982 -1573.238 -2660.047 -1609.984 -2618.262 -1615.155 Z " fill="rgb(25,25,25)"/><path d=" M -2536.279 -1589.265 C -2528.931 -1599.411 -2498.477 -1583.027 -2484.228 -1559.069 C -2470.34 -1535.714 -2474.641 -1501.137 -2488.741 -1503.632 C -2497.653 -1505.207 -2485.847 -1526.735 -2499.454 -1550.265 C -2513.062 -1573.794 -2542.847 -1580.198 -2536.279 -1589.265 Z " fill="rgb(81,81,81)"/></g></g></g></g><text transform="matrix(1,0,0,1,-1606.25,-1635.596)" style="font-family:'Open Sans';font-weight:700;font-size:300px;font-style:normal;fill:#ffffff;stroke:none;">AgileTs</text></g></svg>